<?xml version="1.0" encoding="utf-8"?>
<!-- Generator: Adobe Illustrator 24.1.2, SVG Export Plug-In . SVG Version: 6.00 Build 0)  -->
<svg version="1.1" id="Layer_1" xmlns="http://www.w3.org/2000/svg" xmlns:xlink="http://www.w3.org/1999/xlink" x="0px" y="0px"
	 viewBox="0 0 30 27" style="enable-background:new 0 0 30 27;" xml:space="preserve">
<style type="text/css">
	.st0{fill:none;stroke:#353535;stroke-width:2;stroke-linecap:round;stroke-miterlimit:10;}
</style>
<path class="st0" d="M1.4,1.7h5.2"/>
<path class="st0" d="M6.6,1.7L11,18.9"/>
<path class="st0" d="M11.8,18.9h16.5"/>
<path class="st0" d="M13.8,25.7c1.7,0,3-1.3,3-3s-1.3-3-3-3s-3,1.3-3,3C10.8,24.4,12.1,25.7,13.8,25.7z"/>
<path class="st0" d="M25.3,25.7c1.7,0,3-1.3,3-3s-1.3-3-3-3s-3,1.3-3,3C22.3,24.4,23.6,25.7,25.3,25.7z"/>
<path class="st0" d="M25.7,14.6H11.3c-0.6,0-1.2-0.4-1.3-1L8.1,6.9C7.9,6,8.5,5.2,9.4,5.2h18.1c0.9,0,1.6,0.9,1.3,1.7l-1.9,6.7
	C26.9,14.2,26.4,14.6,25.7,14.6z"/>
</svg>
